<svg xmlns="http://www.w3.org/2000/svg" data-name="Layer 2" viewBox="0 0 100 125" x="0px" y="0px"><title>Artboard 14</title><path d="M12,79.42a19,19,0,0,1,0-26.79l22.2-22.2A18.94,18.94,0,0,1,61,57.21l-11.1,11.1A1.5,1.5,0,0,1,47.8,66.2l11.1-11.1A15.94,15.94,0,0,0,36.35,32.54l-22.2,22.2A15.94,15.94,0,0,0,36.69,77.3l2.44-2.44A1.5,1.5,0,0,1,41.25,77l-2.44,2.44a19,19,0,0,1-26.79,0ZM61.18,20.58,58.67,23.1a1.5,1.5,0,0,0,2.12,2.12l2.51-2.51A15.94,15.94,0,0,1,85.85,45.25l-22.2,22.2A15.94,15.94,0,0,1,41.1,44.91L52.2,33.8a1.5,1.5,0,0,0-2.12-2.12L39,42.79A18.94,18.94,0,0,0,65.77,69.58L88,47.37A18.94,18.94,0,0,0,61.18,20.58Z"/><text x="0" y="115" fill="#000000" font-size="5px" font-weight="bold" font-family="'Helvetica Neue', Helvetica, Arial-Unicode, Arial, Sans-serif">Created by Erman Tutan</text><text x="0" y="120" fill="#000000" font-size="5px" font-weight="bold" font-family="'Helvetica Neue', Helvetica, Arial-Unicode, Arial, Sans-serif">from the Noun Project</text></svg>